# xmcd
#
# Track frame offsets:
#	150
#	11747
#	20465
#	30682
#	43445
#	55045
#	66535
#	76722
#	89317
#	101170
#	114222
#	125520
#	136522
#	147185
#	158397
#	169032
#	180122
#	191865
#	203530
#	215407
#
# Disc length: 2993 seconds
#
# Revision: 1
# Processed by: cddbd v1.4PL0 Copyright (c) Steve Scherf et al.
# Submitted via: audiograbber 1.82.02
#
DISCID=040baf14
DTITLE=Patsy Cline - The Best Of
DYEAR=1900
DGENRE=
TTITLE0=Walking after midnight
TTITLE1=Ain't no wheels on this side
TTITLE2=Too many secrets
TTITLE3=Just a closer walk with thee
TTITLE4=Never no more
TTITLE5=In case of the blues
TTITLE6=Three cigarettes in an ashtray
TTITLE7=Fingerprints
TTITLE8=Today, tommorrow and forever
TTITLE9=If I could see the world
TTITLE10=Just out of reach
TTITLE11=I can't forget
TTITLE12=I can see an angle
TTITLE13=Hungry for love
TTITLE14=I don't wanna
TTITLE15=Stop the world
TTITLE16=Let the tear drops fall
TTITLE17=I've loved and lost again
TTITLE18=If I could only stay asleep
TTITLE19=I love you honey
EXTD=
EXTT0=
EXTT1=
EXTT2=
EXTT3=
EXTT4=
EXTT5=
EXTT6=
EXTT7=
EXTT8=
EXTT9=
EXTT10=
EXTT11=
EXTT12=
EXTT13=
EXTT14=
EXTT15=
EXTT16=
EXTT17=
EXTT18=
EXTT19=
PLAYORDER=
